Coordinates
version=1
nRows=24
nColumns=24
inDegrees=yes

Units are S.I. units (second, meters, Newtons, ...)
Angles are in degrees.

endheader
time	pelvis_tilt	pelvis_list	pelvis_rotation	pelvis_tx	pelvis_ty	pelvis_tz	hip_flexion_r	hip_adduction_r	hip_rotation_r	knee_angle_r	ankle_angle_r	subtalar_angle_r	mtp_angle_r	hip_flexion_l	hip_adduction_l	hip_rotation_l	knee_angle_l	ankle_angle_l	subtalar_angle_l	mtp_angle_l	lumbar_extension	lumbar_bending	lumbar_rotation
      0.46200000	      5.88735870	     -0.24341799	      1.47478785	     -0.77145084	      0.99849459	      0.28159226	     19.25185930	      3.09883603	     -1.66445768	    -13.62405868	      5.15718952	    -12.91431247	     -0.43674768	    -21.91650218	      2.94638821	      1.20751379	     -4.78221851	     10.21976985	     -3.56256277	      0.21918051	     -8.81679004	      3.47022225	     -0.71228823
      0.46616667	      5.84157999	     -0.26373604	      1.49001221	     -0.76566437	      0.99777866	      0.28192880	     19.17790944	      3.18671525	     -1.65240536	    -13.45046963	      4.97086246	    -13.14275978	     -0.78564956	    -21.82700276	      2.88024031	      0.99545561	     -5.55701040	     10.44487994	     -3.14715684	      0.26732393	     -8.73598712	      3.49009122	     -0.83149859
      0.47033333	      5.85732515	     -0.28269227	      1.53339493	     -0.75982693	      0.99719125	      0.28216519	     19.03610094	      3.24848161	     -1.75731624	    -13.35458112	      4.76042751	    -13.18869154	     -0.86509273	    -21.84653844	      2.82283526	      1.04470759	     -6.24537327	     10.53259749	     -3.15046289	      0.28889485	     -8.71834014	      3.52796480	     -0.82354867
      0.47450000	      5.86149694	     -0.34544153	      1.55334442	     -0.75394179	      0.99663015	      0.28250139	     18.87850365	      3.38642939	     -1.72285510	    -13.27536806	      4.47295945	    -13.48991625	     -1.11807090	    -21.76014632	      2.70231004	      0.79092622	     -7.11489915	     10.67917226	     -2.65887718	      0.40636862	     -8.69364078	      3.60642133	     -0.94985419
      0.47866667	      5.87838533	     -0.38647578	      1.57608434	     -0.74804147	      0.99613927	      0.28280282	     18.71784869	      3.49176134	     -1.72787007	    -13.28678028	      4.16413236	    -13.71782501	     -1.34003681	    -21.69081933	      2.61423027	      0.68780911	     -7.97562593	     10.73596344	     -2.42771832	      0.56338616	     -8.67678221	      3.66885262	     -0.98287244
      0.48283333	      5.89035112	     -0.43631673	      1.59990356	     -0.74210730	      0.99568154	      0.28310260	     18.56160470	      3.60602189	     -1.72501458	    -13.36199959	      3.84783464	    -13.96788936	     -1.52554102	    -21.57385744	      2.51516076	      0.57746951	     -8.91221070	     10.77523792	     -2.19461721	      0.76807176	     -8.65190023	      3.74052512	     -1.02606485
      0.48700000	      5.89881857	     -0.48647458	      1.61590539	     -0.73615500	      0.99526153	      0.28341850	     18.41191931	      3.72357379	     -1.70449182	    -13.50036999	      3.51535641	    -14.23499330	     -1.67958746	    -21.42480798	      2.41636672	      0.46215472	     -9.90531080	     10.76765109	     -1.97332793	      1.02722595	     -8.62151929	      3.81521941	     -1.05482809
      0.49116667	      5.92915119	     -0.52576894	      1.64665254	     -0.73017143	      0.99493697	      0.28366765	     18.25008447	      3.80997693	     -1.76956401	    -13.71118822	      3.13910382	    -14.35795582	     -1.72510198	    -21.29685058	      2.33737573	      0.48120608	    -10.89244866	     10.66474157	     -1.95490133	      1.13136804	     -8.61573278	      3.89341867	     -1.04142041
      0.49533333	      5.93786584	     -0.60031461	      1.63729770	     -0.72416797	      0.99459365	      0.28407088	     18.08565454	      3.97567448	     -1.63049059	    -13.91949940	      2.82391906	    -14.80082357	     -1.82250456	    -21.05071697	      2.20171598	      0.22027480	    -12.06789145	     10.61712582	     -1.54206006	      1.52245394	     -8.57788423	      3.98077572	     -1.08649442
      0.49950000	      5.94212028	     -0.65957734	      1.66107946	     -0.71813993	      0.99432105	      0.28435103	     17.94695550	      4.08675995	     -1.65919969	    -14.19879470	      2.39210178	    -14.94624179	     -1.85695987	    -20.80999874	      2.09810602	      0.20881884	    -13.20731470	     10.40616360	     -1.50660083	      1.69310343	     -8.54374485	      4.07624507	     -1.05431779
      0.50366667	      5.94380794	     -0.73151671	      1.67350353	     -0.71211024	      0.99407927	      0.28471883	     17.78042846	      4.23534550	     -1.55013569	    -14.45061449	      2.02699511	    -15.29689488	     -1.89690256	    -20.47523748	      1.95628625	      0.01330343	    -14.51946012	     10.24327591	     -1.18173978	      2.03880837	     -8.47496170	      4.16517354	     -1.04964108
      0.50783333	      5.95726422	     -0.81577116	      1.66729240	     -0.70608184	      0.99387480	      0.28510716	     17.62384163	      4.39898996	     -1.44966002	    -14.77397558	      1.66878051	    -15.64428168	     -1.93211042	    -20.12655664	      1.80735244	     -0.17775399	    -15.87313287	      9.98873044	     -0.94100489	      2.46391041	     -8.44125958	      4.27898426	     -1.01260059
      0.51200000	      5.97295043	     -0.90328958	      1.62841211	     -0.70005597	      0.99371596	      0.28554993	     17.46932098	      4.58367982	     -1.26317132	    -15.13676869	      1.38677181	    -16.15265649	     -2.25297962	    -19.76225748	      1.66641229	     -0.36635118	    -17.22959606	      9.48646408	     -0.94414346	      8.34908345	     -8.42435322	      4.39827229	     -0.93998120
      0.51616667	      5.99119220	     -0.99720296	      1.64165235	     -0.69402244	      0.99359544	      0.28591005	     17.32001482	      4.73465692	     -1.25660254	    -15.51843888	      1.05241820	    -16.23123238	     -2.25890411	    -19.32526424	      1.48993713	     -0.54530300	    -18.73546598	      9.10922607	     -0.68610842	      8.42051818	     -8.39069155	      4.52477852	     -0.91441849
      0.52033333	      6.03138907	     -1.12881725	      1.60897190	     -0.68801182	      0.99352397	      0.28638898	     17.12988337	      4.96632670	     -1.07066153	    -15.88180014	      0.75349524	    -16.70856950	     -2.27872970	    -18.87053889	      1.27044908	     -0.82675824	    -20.30280056	      8.65504112	     -0.41675079	      8.88315355	     -8.39910502	      4.69286808	     -0.84862480
      0.52450000	      6.00841004	     -1.22394658	      1.60977783	     -0.68201994	      0.99340894	      0.28678611	     17.04071487	      5.12291032	     -1.02194810	    -16.32244023	      0.53500478	    -16.82331253	     -2.28607538	    -18.29707686	      1.08978358	     -0.98784540	    -21.94098743	      8.09328132	     -0.27771054	      9.05022065	     -8.31650257	      4.81608372	     -0.76959674
      0.52866667	      6.04432666	     -1.37893569	      1.59227286	     -0.67605475	      0.99337418	      0.28728930	     16.86741826	      5.37673745	     -0.85369437	    -16.73311972	      0.36962758	    -17.33549357	     -2.32171717	    -17.73651062	      0.81796282	     -1.27239866	    -23.65949557	      7.49899815	      0.02103201	      9.74037798	     -8.32821301	      5.00579584	     -0.67271949
      0.53283333	      6.03178188	     -1.51666886	      1.57461589	     -0.67010941	      0.99331230	      0.28774273	     16.75469892	      5.59355740	     -0.73393094	    -17.15425975	      0.15221021	    -17.54458264	     -2.59680521	    -17.09067265	      0.58079560	     -1.46711430	    -25.40732308	      6.73397541	     -0.01228982	     14.01065916	     -8.27318610	      5.18258198	     -0.56504381
      0.53700000	      6.04458758	     -1.66738840	      1.54891348	     -0.66417092	      0.99330589	      0.28823112	     16.62019110	      5.82137208	     -0.64368074	    -17.59798279	      0.05294100	    -17.57687561	     -2.60214482	    -16.43066625	      0.30894864	     -1.71842507	    -27.20790974	      5.89324675	      0.16254310	     14.06282083	     -8.24673934	      5.35156313	     -0.47802129
      0.54116667	      6.05225150	     -1.82985553	      1.52045052	     -0.65830917	      0.99326565	      0.28873377	     16.50505934	      6.06703731	     -0.53954369	    -18.06711274	     -0.02145090	    -17.81224555	     -2.62205823	    -15.71040019	      0.01406400	     -1.97998125	    -29.09815056	      5.09059223	      0.32307545	     14.21034316	     -8.22920596	      5.55569412	     -0.35552904
      0.54533333	      6.06147621	     -2.01457087	      1.50100312	     -0.65244992	      0.99328145	      0.28924235	     16.36234093	      6.33857583	     -0.41568348	    -18.48836650	     -0.05475664	    -18.01630931	     -2.64995645	    -14.96266939	     -0.31387268	     -2.21620977	    -31.00354452	      4.15935653	      0.42088414	     14.40386841	     -8.20814622	      5.77515709	     -0.23264158
      0.54950000	      6.09135278	     -2.22119504	      1.48475677	     -0.64661925	      0.99332888	      0.28975483	     16.18894634	      6.63352768	     -0.29864357	    -18.89397135	     -0.04369168	    -18.19715154	     -2.68636652	    -14.20665809	     -0.67719637	     -2.45043457	    -32.94177592	      3.16444902	      0.49304470	     14.63259764	     -8.21469093	      6.01981150	     -0.10367041
      0.55366667	      6.13287441	     -2.43861662	      1.50297672	     -0.64081870	      0.99343079	      0.29025142	     15.97702218	      6.94021801	     -0.18381707	    -19.25043009	     -0.00079100	    -18.56073468	     -2.81257670	    -13.43011775	     -1.07009913	     -2.63306997	    -34.89580294	      2.07571516	      0.57287703	     15.29101672	     -8.23302645	      6.26653297	      0.05580313
      0.55783333	      6.14186039	     -2.65145895	      1.45684984	     -0.63506888	      0.99345209	      0.29077830	     15.83558841	      7.23710971	     -0.08686141	    -19.67463946	      0.10677263	    -18.52192604	     -2.86342442	    -12.59841614	     -1.44222526	     -2.86707430	    -36.86824580	      0.99164945	      0.52481070	     15.53866049	     -8.23340649	      6.52782110	      0.16462898
